<svg version="1.1" id="Layer_1" xmlns="http://www.w3.org/2000/svg" xmlns:xlink="http://www.w3.org/1999/xlink" x="0px" y="0px"
     width="100%" viewBox="0 0 512 507" enable-background="new 0 0 512 507" xml:space="preserve">
<path fill="#FFFFFF" opacity="1.000000" stroke="none"
      d="
M0.999997,488.000000
	C1.000000,332.309265 1.000000,176.618515 1.305014,20.753658
	C2.059443,20.132889 2.702534,19.767460 2.929060,19.227327
	C6.049474,11.786950 11.192871,6.358490 18.592768,3.045574
	C19.237820,2.756786 19.539061,1.700037 20.000000,1.000000
	C177.690750,1.000000 335.381500,1.000000 493.246338,1.305032
	C493.867096,2.059474 494.232574,2.709078 494.772644,2.928108
	C502.285583,5.974923 507.446991,11.394596 510.950073,18.592295
	C511.265564,19.240540 512.299683,19.539057 513.000000,19.999996
	C513.000000,175.690750 513.000000,331.381500 512.694275,487.246216
	C511.996460,487.720581 511.399078,487.939362 511.242493,488.333344
	C507.581482,497.545685 501.214478,503.714172 491.470306,506.214600
	C491.179932,506.289093 491.150909,507.381958 491.000000,508.000000
	C335.309265,508.000000 179.618515,508.000000 23.757160,507.680725
	C23.273129,506.982208 23.026762,506.370483 22.636431,506.257904
	C13.515840,503.627533 6.856622,498.196991 3.035156,489.389587
	C2.758552,488.752045 1.696733,488.455231 0.999997,488.000000
M224.244324,343.899200
	C224.244324,362.821350 224.244324,381.743469 224.244324,400.669250
	C242.767349,400.669250 260.646606,400.669250 279.031219,400.669250
	C279.031219,381.223663 279.031219,362.110474 279.962280,342.979492
	C300.810944,342.979492 321.659607,342.979492 343.399353,342.979492
	C340.425751,362.638763 337.573669,381.494385 334.721588,400.350037
	C335.393158,400.503510 336.064758,400.657013 336.736328,400.810516
	C337.153442,399.582520 337.758026,398.384369 337.958893,397.122009
	C340.110687,383.600067 342.136566,370.057831 344.339996,356.544525
	C345.048981,352.196289 344.827423,346.325836 347.499207,344.054810
	C350.154907,341.797302 355.911316,343.099426 360.311584,342.999481
	C371.986633,342.734283 383.663666,342.386475 395.339844,342.388306
	C407.184113,342.390167 419.027893,342.818970 430.873108,342.929993
	C432.499786,342.945221 434.133545,342.205872 435.764038,341.815887
	C435.652191,341.199982 435.540344,340.584045 435.428497,339.968140
	C406.087646,339.968140 376.746826,339.968140 347.345398,339.968140
	C347.237305,338.566711 347.055573,337.894928 347.156189,337.268524
	C349.435791,323.079834 351.746307,308.896179 354.051025,294.711548
	C356.090820,282.157410 358.091705,269.596802 360.183380,257.051300
	C361.706390,247.916519 363.464508,238.820023 364.914734,229.674240
	C367.970520,210.403168 371.086700,191.137405 373.726013,171.807739
	C374.341370,167.300812 376.407074,166.949036 379.973236,166.969498
	C397.804626,167.071869 415.636932,167.037933 433.468811,166.996826
	C435.270935,166.992676 437.072205,166.619110 438.873871,166.416977
	C438.855957,165.736816 438.838043,165.056656 438.820129,164.376495
	C417.709808,164.376495 396.599487,164.376495 375.408234,164.376495
	C377.633575,143.222122 382.454498,123.629822 383.070312,103.474808
	C381.739197,104.456802 381.231262,105.589478 381.043793,106.772919
	C378.300995,124.086266 375.581207,141.403320 372.906372,158.727295
	C372.330444,162.457397 371.022644,164.214798 366.531738,164.159134
	C341.870667,163.853470 317.203796,164.034210 292.539185,163.960709
	C290.660400,163.955109 288.783630,163.272964 287.210571,162.297531
	C300.158020,149.520432 314.306793,155.925125 328.620758,159.903152
	C333.732605,146.951645 338.827881,134.042114 343.998047,120.942863
	C342.425873,119.867592 341.140381,118.830803 339.718048,118.040154
	C326.469910,110.675606 312.270325,107.236534 297.119598,108.086929
	C275.844879,109.281075 256.627991,115.324310 241.766312,131.690201
	C233.350479,140.957825 228.942139,152.114655 224.982437,164.012680
	C203.776245,164.012680 182.570053,164.012680 160.853683,164.012680
	C162.666000,153.094482 164.865280,143.221420 165.802979,133.229965
	C166.709503,123.570656 170.504822,114.140404 169.478958,104.311829
	C168.793396,104.221924 168.107849,104.132019 167.422302,104.042107
	C164.211700,123.920258 161.001114,143.798416 157.735382,164.017883
	C143.565750,164.017883 129.937042,163.989960 116.308517,164.025803
	C102.931374,164.060989 89.542686,163.866806 76.173698,164.140564
	C76.180336,165.022659 76.186966,165.904739 76.193596,166.786835
	C103.028847,166.786835 129.864090,166.786835 157.512863,166.786835
	C156.533981,172.754242 155.727020,177.444061 155.000229,182.146271
	C152.575974,197.831207 150.265030,213.534149 147.749893,229.204376
	C145.287643,244.545029 142.507477,259.834991 140.085907,275.181732
	C136.917419,295.262299 134.057053,315.392212 130.744171,335.448029
	C130.475067,337.077118 127.763145,339.493591 126.151787,339.521149
	C113.595680,339.735657 101.031075,339.368195 88.469162,339.372986
	C84.114365,339.374634 79.759773,339.919556 75.405083,340.216339
	C75.417274,341.099976 75.429466,341.983612 75.441658,342.867249
	C93.126167,343.140900 110.837288,342.832214 129.403107,343.034668
	C126.384155,362.646576 123.482834,381.494354 120.581512,400.342133
	C121.316414,400.491516 122.051315,400.640900 122.786217,400.790283
	C123.194809,399.563843 123.778267,398.366150 123.985527,397.106567
	C126.668762,380.799133 129.580261,364.520477 131.763153,348.145081
	C132.385483,343.476532 134.235962,342.901337 138.115585,342.915680
	C166.765198,343.021484 195.415390,342.972687 224.244324,343.899200
z"/>
    <path fill="#000000" opacity="1.000000" stroke="none"
          d="
M0.999997,488.469055
	C1.696733,488.455231 2.758552,488.752045 3.035156,489.389587
	C6.856622,498.196991 13.515840,503.627533 22.636431,506.257904
	C23.026762,506.370483 23.273129,506.982208 23.293278,507.680725
	C15.744079,508.000000 8.488157,508.000000 1.000000,508.000000
	C1.000000,501.647888 1.000000,495.292999 0.999997,488.469055
z"/>
    <path fill="#000000" opacity="1.000000" stroke="none"
          d="
M491.468781,508.000000
	C491.150909,507.381958 491.179932,506.289093 491.470306,506.214600
	C501.214478,503.714172 507.581482,497.545685 511.242493,488.333344
	C511.399078,487.939362 511.996460,487.720581 512.694275,487.710083
	C513.000000,494.596375 513.000000,501.192749 513.000000,508.000000
	C505.980591,508.000000 498.959076,508.000000 491.468781,508.000000
z"/>
    <path fill="#000000" opacity="1.000000" stroke="none"
          d="
M513.000000,19.530621
	C512.299683,19.539057 511.265564,19.240540 510.950073,18.592295
	C507.446991,11.394596 502.285583,5.974923 494.772644,2.928108
	C494.232574,2.709078 493.867096,2.059474 493.710205,1.305032
	C500.259247,1.000000 506.518463,1.000000 513.000000,1.000000
	C513.000000,7.018606 513.000000,13.039927 513.000000,19.530621
z"/>
    <path fill="#000000" opacity="1.000000" stroke="none"
          d="
M19.530624,1.000000
	C19.539061,1.700037 19.237820,2.756786 18.592768,3.045574
	C11.192871,6.358490 6.049474,11.786950 2.929060,19.227327
	C2.702534,19.767460 2.059443,20.132889 1.305014,20.289772
	C1.000000,13.740766 1.000000,7.481532 1.000000,1.000000
	C7.018606,1.000000 13.039927,1.000000 19.530624,1.000000
z"/>
    <path fill="#12B940" opacity="1.000000" stroke="none"
          d="
M279.031250,342.997253
	C279.031219,362.110474 279.031219,381.223663 279.031219,400.669250
	C260.646606,400.669250 242.767349,400.669250 224.244324,400.669250
	C224.244324,381.743469 224.244324,362.821350 224.250214,343.068054
	C224.167389,341.486328 224.078674,340.735748 224.105011,339.529907
	C224.220078,307.822815 224.220078,276.571045 224.220078,244.893936
	C213.619415,244.893936 203.534561,244.893936 193.234970,244.893936
	C193.234970,230.732071 193.234970,216.999023 193.234970,202.806030
	C203.542297,202.806030 213.622757,202.806030 223.774811,202.806030
	C224.321228,190.597153 224.847336,178.842163 225.557007,166.819855
	C225.796082,165.696411 225.851593,164.840302 225.907104,163.984207
	C228.942139,152.114655 233.350479,140.957825 241.766312,131.690201
	C256.627991,115.324310 275.844879,109.281075 297.119598,108.086929
	C312.270325,107.236534 326.469910,110.675606 339.718048,118.040154
	C341.140381,118.830803 342.425873,119.867592 343.998047,120.942863
	C338.827881,134.042114 333.732605,146.951645 328.620758,159.903152
	C314.306793,155.925125 300.158020,149.520432 286.770386,162.737579
	C285.613922,164.464340 284.897644,165.751068 283.935638,167.310364
	C277.884583,178.700760 278.703308,190.599304 279.041107,202.832108
	C290.873749,202.832108 302.177185,202.760452 313.477539,202.916748
	C315.003967,202.937866 317.430389,203.714172 317.893066,204.799988
	C323.477783,217.905884 328.771332,231.135864 334.434906,245.056671
	C315.485443,245.056671 297.281677,245.056671 278.839905,245.056671
	C278.839905,246.743195 278.837433,247.892944 278.840271,249.042679
	C278.915009,279.355743 278.990265,309.668793 278.980469,340.354248
	C278.940765,341.483490 278.985992,342.240356 279.031250,342.997253
z"/>
    <path fill="#DFDFDF" opacity="1.000000" stroke="none"
          d="
M225.444763,163.998444
	C225.851593,164.840302 225.796082,165.696411 225.062378,166.795776
	C204.896072,167.032166 185.407684,167.075989 165.920090,166.972443
	C162.342133,166.953430 160.038788,167.269714 159.717300,171.839783
	C159.254990,178.411758 157.965515,184.933685 156.880280,191.452209
	C153.324921,212.807587 149.561279,234.129196 146.141434,255.505981
	C141.911392,281.947266 138.112991,308.458771 133.707443,334.869751
	C132.932510,339.515381 134.424576,340.077179 138.117905,339.987701
	C150.735184,339.682037 163.354843,339.234985 175.972824,339.258209
	C191.978928,339.287659 207.984299,339.724182 223.989960,339.985199
	C224.078674,340.735748 224.167389,341.486328 224.160751,342.604736
	C195.415390,342.972687 166.765198,343.021484 138.115585,342.915680
	C134.235962,342.901337 132.385483,343.476532 131.763153,348.145081
	C129.580261,364.520477 126.668762,380.799133 123.985527,397.106567
	C123.778267,398.366150 123.194809,399.563843 122.786217,400.790283
	C122.051315,400.640900 121.316414,400.491516 120.581512,400.342133
	C123.482834,381.494354 126.384155,362.646576 129.403107,343.034668
	C110.837288,342.832214 93.126167,343.140900 75.441658,342.867249
	C75.429466,341.983612 75.417274,341.099976 75.405083,340.216339
	C79.759773,339.919556 84.114365,339.374634 88.469162,339.372986
	C101.031075,339.368195 113.595680,339.735657 126.151787,339.521149
	C127.763145,339.493591 130.475067,337.077118 130.744171,335.448029
	C134.057053,315.392212 136.917419,295.262299 140.085907,275.181732
	C142.507477,259.834991 145.287643,244.545029 147.749893,229.204376
	C150.265030,213.534149 152.575974,197.831207 155.000229,182.146271
	C155.727020,177.444061 156.533981,172.754242 157.512863,166.786835
	C129.864090,166.786835 103.028847,166.786835 76.193596,166.786835
	C76.186966,165.904739 76.180336,165.022659 76.173698,164.140564
	C89.542686,163.866806 102.931374,164.060989 116.308517,164.025803
	C129.937042,163.989960 143.565750,164.017883 157.735382,164.017883
	C161.001114,143.798416 164.211700,123.920258 167.422302,104.042107
	C168.107849,104.132019 168.793396,104.221924 169.478958,104.311829
	C170.504822,114.140404 166.709503,123.570656 165.802979,133.229965
	C164.865280,143.221420 162.666000,153.094482 160.853683,164.012680
	C182.570053,164.012680 203.776245,164.012680 225.444763,163.998444
z"/>
    <path fill="#DFDFDF" opacity="1.000000" stroke="none"
          d="
M284.181366,167.037796
	C284.897644,165.751068 285.613922,164.464340 286.618042,163.041458
	C288.783630,163.272964 290.660400,163.955109 292.539185,163.960709
	C317.203796,164.034210 341.870667,163.853470 366.531738,164.159134
	C371.022644,164.214798 372.330444,162.457397 372.906372,158.727295
	C375.581207,141.403320 378.300995,124.086266 381.043793,106.772919
	C381.231262,105.589478 381.739197,104.456802 383.070312,103.474808
	C382.454498,123.629822 377.633575,143.222122 375.408234,164.376495
	C396.599487,164.376495 417.709808,164.376495 438.820129,164.376495
	C438.838043,165.056656 438.855957,165.736816 438.873871,166.416977
	C437.072205,166.619110 435.270935,166.992676 433.468811,166.996826
	C415.636932,167.037933 397.804626,167.071869 379.973236,166.969498
	C376.407074,166.949036 374.341370,167.300812 373.726013,171.807739
	C371.086700,191.137405 367.970520,210.403168 364.914734,229.674240
	C363.464508,238.820023 361.706390,247.916519 360.183380,257.051300
	C358.091705,269.596802 356.090820,282.157410 354.051025,294.711548
	C351.746307,308.896179 349.435791,323.079834 347.156189,337.268524
	C347.055573,337.894928 347.237305,338.566711 347.345398,339.968140
	C376.746826,339.968140 406.087646,339.968140 435.428497,339.968140
	C435.540344,340.584045 435.652191,341.199982 435.764038,341.815887
	C434.133545,342.205872 432.499786,342.945221 430.873108,342.929993
	C419.027893,342.818970 407.184113,342.390167 395.339844,342.388306
	C383.663666,342.386475 371.986633,342.734283 360.311584,342.999481
	C355.911316,343.099426 350.154907,341.797302 347.499207,344.054810
	C344.827423,346.325836 345.048981,352.196289 344.339996,356.544525
	C342.136566,370.057831 340.110687,383.600067 337.958893,397.122009
	C337.758026,398.384369 337.153442,399.582520 336.736328,400.810516
	C336.064758,400.657013 335.393158,400.503510 334.721588,400.350037
	C337.573669,381.494385 340.425751,362.638763 343.399353,342.979492
	C321.659607,342.979492 300.810944,342.979492 279.496765,342.988373
	C278.985992,342.240356 278.940765,341.483490 279.444702,340.358337
	C299.645142,339.991760 319.297913,339.864441 338.946350,340.099579
	C343.073914,340.148926 344.478760,338.569153 345.017303,334.869293
	C346.841675,322.336548 348.771545,309.818237 350.771515,297.312103
	C353.457428,280.516724 356.284393,263.743927 358.981140,246.950226
	C362.282257,226.392700 365.532684,205.826965 368.757721,185.257370
	C369.668396,179.448822 370.413391,173.614304 371.340698,167.037796
	C341.686554,167.037796 312.933960,167.037796 284.181366,167.037796
z"/>
    <path fill="#FFFFFF" opacity="1.000000" stroke="none"
          d="
M224.105026,339.529907
	C207.984299,339.724182 191.978928,339.287659 175.972824,339.258209
	C163.354843,339.234985 150.735184,339.682037 138.117905,339.987701
	C134.424576,340.077179 132.932510,339.515381 133.707443,334.869751
	C138.112991,308.458771 141.911392,281.947266 146.141434,255.505981
	C149.561279,234.129196 153.324921,212.807587 156.880280,191.452209
	C157.965515,184.933685 159.254990,178.411758 159.717300,171.839783
	C160.038788,167.269714 162.342133,166.953430 165.920090,166.972443
	C185.407684,167.075989 204.896072,167.032166 224.878815,167.063110
	C224.847336,178.842163 224.321228,190.597153 223.774811,202.806030
	C213.622757,202.806030 203.542297,202.806030 193.234970,202.806030
	C193.234970,216.999023 193.234970,230.732071 193.234970,244.893936
	C203.534561,244.893936 213.619415,244.893936 224.220078,244.893936
	C224.220078,276.571045 224.220078,307.822815 224.105026,339.529907
z"/>
    <path fill="#FFFFFF" opacity="1.000000" stroke="none"
          d="
M283.935638,167.310364
	C312.933960,167.037796 341.686554,167.037796 371.340698,167.037796
	C370.413391,173.614304 369.668396,179.448822 368.757721,185.257370
	C365.532684,205.826965 362.282257,226.392700 358.981140,246.950226
	C356.284393,263.743927 353.457428,280.516724 350.771515,297.312103
	C348.771545,309.818237 346.841675,322.336548 345.017303,334.869293
	C344.478760,338.569153 343.073914,340.148926 338.946350,340.099579
	C319.297913,339.864441 299.645142,339.991760 279.529663,339.985992
	C278.990265,309.668793 278.915009,279.355743 278.840271,249.042679
	C278.837433,247.892944 278.839905,246.743195 278.839905,245.056671
	C297.281677,245.056671 315.485443,245.056671 334.434906,245.056671
	C328.771332,231.135864 323.477783,217.905884 317.893066,204.799988
	C317.430389,203.714172 315.003967,202.937866 313.477539,202.916748
	C302.177185,202.760452 290.873749,202.832108 279.041107,202.832108
	C278.703308,190.599304 277.884583,178.700760 283.935638,167.310364
z"/>
</svg>
