<svg width="120" height="120" viewBox="0 0 120 120" fill="none" xmlns="http://www.w3.org/2000/svg">
<g clip-path="url(#clip0_1_2)">
<mask id="mask0_1_2" style="mask-type:alpha" maskUnits="userSpaceOnUse" x="0" y="0" width="120" height="120">
<rect width="120" height="120" rx="24" fill="#0ABAB5"/>
</mask>
<g mask="url(#mask0_1_2)">
<rect width="120" height="120" rx="24" fill="#0ABAB5"/>
<rect x="-10.0036" y="121.518" width="54" height="12" transform="rotate(-45 -10.0036 121.518)" fill="white"/>
<rect x="-22.7315" y="93.234" width="72" height="12" transform="rotate(-45 -22.7315 93.234)" fill="white"/>
<rect x="18.2807" y="134.246" width="72" height="12" transform="rotate(-45 18.2807 134.246)" fill="white"/>
<rect x="42.3223" y="28.1802" width="72" height="12" transform="rotate(-45 42.3223 28.1802)" fill="white"/>
<rect x="83.3345" y="69.1924" width="72" height="12" transform="rotate(-45 83.3345 69.1924)" fill="white"/>
<rect x="83.3345" y="28.1802" width="54" height="12" transform="rotate(-45 83.3345 28.1802)" fill="white"/>
<rect x="42.3223" y="69.1924" width="38" height="12" transform="rotate(-45 42.3223 69.1924)" fill="white"/>
<rect x="48.6863" y="98.1838" width="38" height="12" transform="rotate(-135 48.6863 98.1838)" fill="white"/>
<rect x="7.6741" y="57.1716" width="38" height="12" transform="rotate(-135 7.6741 57.1716)" fill="white"/>
<rect x="89.6985" y="139.196" width="38" height="12" transform="rotate(-135 89.6985 139.196)" fill="white"/>
<rect x="110.205" y="118.69" width="67" height="12" transform="rotate(-135 110.205 118.69)" fill="white"/>
<rect x="48.6863" y="57.1716" width="67" height="12" transform="rotate(-135 48.6863 57.1716)" fill="white"/>
<rect x="89.6985" y="57.1716" width="38" height="12" transform="rotate(-135 89.6985 57.1716)" fill="white"/>
<rect x="48.6863" y="16.1594" width="38" height="12" transform="rotate(-135 48.6863 16.1594)" fill="white"/>
<rect x="130.711" y="98.1838" width="38" height="12" transform="rotate(-135 130.711 98.1838)" fill="white"/>
</g>
</g>
<defs>
<clipPath id="clip0_1_2">
<rect width="120" height="120" fill="white"/>
</clipPath>
</defs>
</svg>
